  0
SECTION
  2
HEADER
  9
$ACADVER
  1
AC1014
  9
$HANDSEED
  5
FFFF
  9
$MEASUREMENT
 70
     1
  0
ENDSEC
  0
SECTION
  2
TABLES
  0
TABLE
  2
VPORT
  5
8
330
0
100
AcDbSymbolTable
 70
     4
  0
VPORT
  5
2E
330
8
100
AcDbSymbolTableRecord
100
AcDbViewportTableRecord
  2
*ACTIVE
 70
     0
 10
0.0
 20
0.0
 11
1.0
 21
1.0
 12
210.0
 22
148.5
 13
0.0
 23
0.0
 14
10.0
 24
10.0
 15
10.0
 25
10.0
 16
0.0
 26
0.0
 36
1.0
 17
0.0
 27
0.0
 37
0.0
 40
341.0
 41
1.24
 42
50.0
 43
0.0
 44
0.0
 50
0.0
 51
0.0
 71
     0
 72
   100
 73
     1
 74
     3
 75
     0
 76
     0
 77
     0
 78
     0
  0
ENDTAB
  0
TABLE
  2
LTYPE
  5
5
330
0
100
AcDbSymbolTable
 70
     1
  0
LTYPE
  5
14
330
5
100
AcDbSymbolTableRecord
100
AcDbLinetypeTableRecord
  2
BYBLOCK
 70
     0
  3

 72
    65
 73
     0
 40
0.0
  0
LTYPE
  5
15
330
5
100
AcDbSymbolTableRecord
100
AcDbLinetypeTableRecord
  2
BYLAYER
 70
     0
  3

 72
    65
 73
     0
 40
0.0
  0
LTYPE
  5
16
330
5
100
AcDbSymbolTableRecord
100
AcDbLinetypeTableRecord
  2
CONTINUOUS
 70
     0
  3
Solid line
 72
    65
 73
     0
 40
0.0
  0
ENDTAB
  0
TABLE
  2
LAYER
  5
2
100
AcDbSymbolTable
 70
2
  0
LAYER
  5
50
100
AcDbSymbolTableRecord
100
AcDbLayerTableRecord
  2
0
 70
0
  6
CONTINUOUS
  0
LAYER
  5
51
100
AcDbSymbolTableRecord
100
AcDbLayerTableRecord
  2
Layer_1
 70
0
  6
CONTINUOUS
  0
ENDTAB
  0
TABLE
  2
STYLE
  5
3
330
0
100
AcDbSymbolTable
 70
     1
  0
STYLE
  5
11
330
3
100
AcDbSymbolTableRecord
100
AcDbTextStyleTableRecord
  2
STANDARD
 70
     0
 40
0.0
 41
1.0
 50
0.0
 71
     0
 42
2.5
  3
txt
  4

  0
ENDTAB
  0
TABLE
  2
VIEW
  5
6
330
0
100
AcDbSymbolTable
 70
     0
  0
ENDTAB
  0
TABLE
  2
UCS
  5
7
330
0
100
AcDbSymbolTable
 70
     0
  0
ENDTAB
  0
TABLE
  2
APPID
  5
9
330
0
100
AcDbSymbolTable
 70
     2
  0
APPID
  5
12
330
9
100
AcDbSymbolTableRecord
100
AcDbRegAppTableRecord
  2
ACAD
 70
     0
  0
ENDTAB
  0
TABLE
  2
DIMSTYLE
  5
A
330
0
100
AcDbSymbolTable
 70
     1
  0
DIMSTYLE
105
27
330
A
100
AcDbSymbolTableRecord
100
AcDbDimStyleTableRecord
  2
ISO-25
 70
     0
  3

  4

  5

  6

  7

 40
1.0
 41
2.5
 42
0.625
 43
3.75
 44
1.25
 45
0.0
 46
0.0
 47
0.0
 48
0.0
140
2.5
141
2.5
142
0.0
143
0.03937007874016
144
1.0
145
0.0
146
1.0
147
0.625
 71
     0
 72
     0
 73
     0
 74
     0
 75
     0
 76
     0
 77
     1
 78
     8
170
     0
171
     3
172
     1
173
     0
174
     0
175
     0
176
     0
177
     0
178
     0
270
     2
271
     2
272
     2
273
     2
274
     3
340
11
275
     0
280
     0
281
     0
282
     0
283
     0
284
     8
285
     0
286
     0
287
     3
288
     0
  0
ENDTAB
  0
TABLE
  2
BLOCK_RECORD
  5
1
330
0
100
AcDbSymbolTable
 70
     1
  0
BLOCK_RECORD
  5
1F
330
1
100
AcDbSymbolTableRecord
100
AcDbBlockTableRecord
  2
*MODEL_SPACE
  0
BLOCK_RECORD
  5
1B
330
1
100
AcDbSymbolTableRecord
100
AcDbBlockTableRecord
  2
*PAPER_SPACE
  0
ENDTAB
  0
ENDSEC
  0
SECTION
  2
BLOCKS
  0
BLOCK
  5
20
330
1F
100
AcDbEntity
  8
0
100
AcDbBlockBegin
  2
*MODEL_SPACE
 70
     0
 10
0.0
 20
0.0
 30
0.0
  3
*MODEL_SPACE
  1

  0
ENDBLK
  5
21
330
1F
100
AcDbEntity
  8
0
100
AcDbBlockEnd
  0
BLOCK
  5
1C
330
1B
100
AcDbEntity
 67
     1
  8
0
100
AcDbBlockBegin
  2
*PAPER_SPACE
  1

  0
ENDBLK
  5
1D
330
1B
100
AcDbEntity
 67
     1
  8
0
100
AcDbBlockEnd
  0
ENDSEC
  0
SECTION
  2
ENTITIES
  0
SPLINE
  5
100
100
AcDbEntity
  8
Layer_1
 62
1
100
AcDbSpline
 70
8
 71
3
 72
8
 73
4
 74
0
 40
0
 40
0
 40
0
 40
0
 40
1
 40
1
 40
1
 40
1
 10
1.951838
 20
41.310138
 30
0.0
 10
1.178643
 20
41.310138
 30
0.0
 10
0.551843
 20
40.683343
 30
0.0
 10
0.551837
 20
39.910148
 30
0.0
  0
LWPOLYLINE
  5
101
100
AcDbEntity
  8
Layer_1
 62
1
100
AcDbPolyline
 90
2
 70
0
 10
0.551837
 20
39.910148
 30
0.0
 10
0.551837
 20
21.910147
 30
0.0
  0
SPLINE
  5
102
100
AcDbEntity
  8
Layer_1
 62
1
100
AcDbSpline
 70
8
 71
3
 72
8
 73
4
 74
0
 40
0
 40
0
 40
0
 40
0
 40
1
 40
1
 40
1
 40
1
 10
96.351836
 20
39.910148
 30
0.0
 10
96.351831
 20
40.683343
 30
0.0
 10
95.725031
 20
41.310138
 30
0.0
 10
94.951836
 20
41.310138
 30
0.0
  0
LWPOLYLINE
  5
103
100
AcDbEntity
  8
Layer_1
 62
1
100
AcDbPolyline
 90
2
 70
0
 10
94.951836
 20
41.310138
 30
0.0
 10
1.951838
 20
41.310138
 30
0.0
  0
SPLINE
  5
104
100
AcDbEntity
  8
Layer_1
 62
1
100
AcDbSpline
 70
8
 71
3
 72
8
 73
4
 74
0
 40
0
 40
0
 40
0
 40
0
 40
1
 40
1
 40
1
 40
1
 10
94.951836
 20
20.510158
 30
0.0
 10
95.725031
 20
20.510158
 30
0.0
 10
96.351831
 20
21.136953
 30
0.0
 10
96.351836
 20
21.910147
 30
0.0
  0
LWPOLYLINE
  5
105
100
AcDbEntity
  8
Layer_1
 62
1
100
AcDbPolyline
 90
2
 70
0
 10
96.351836
 20
21.910147
 30
0.0
 10
96.351836
 20
39.910148
 30
0.0
  0
SPLINE
  5
106
100
AcDbEntity
  8
Layer_1
 62
1
100
AcDbSpline
 70
8
 71
3
 72
8
 73
4
 74
0
 40
0
 40
0
 40
0
 40
0
 40
1
 40
1
 40
1
 40
1
 10
0.551837
 20
21.910147
 30
0.0
 10
0.551843
 20
21.136953
 30
0.0
 10
1.178643
 20
20.510158
 30
0.0
 10
1.951838
 20
20.510158
 30
0.0
  0
LWPOLYLINE
  5
107
100
AcDbEntity
  8
Layer_1
 62
1
100
AcDbPolyline
 90
2
 70
0
 10
1.951838
 20
20.510158
 30
0.0
 10
94.951836
 20
20.510158
 30
0.0
  0
SPLINE
  5
108
100
AcDbEntity
  8
Layer_1
 62
1
100
AcDbSpline
 70
8
 71
3
 72
8
 73
4
 74
0
 40
0
 40
0
 40
0
 40
0
 40
1
 40
1
 40
1
 40
1
 10
98.781732
 20
38.810143
 30
0.0
 10
98.008538
 20
38.810143
 30
0.0
 10
97.381738
 20
38.183348
 30
0.0
 10
97.381732
 20
37.410153
 30
0.0
  0
LWPOLYLINE
  5
109
100
AcDbEntity
  8
Layer_1
 62
1
100
AcDbPolyline
 90
2
 70
0
 10
97.381732
 20
37.410153
 30
0.0
 10
97.381732
 20
24.410142
 30
0.0
  0
SPLINE
  5
10a
100
AcDbEntity
  8
Layer_1
 62
1
100
AcDbSpline
 70
8
 71
3
 72
8
 73
4
 74
0
 40
0
 40
0
 40
0
 40
0
 40
1
 40
1
 40
1
 40
1
 10
138.181730
 20
37.410153
 30
0.0
 10
138.181725
 20
38.183347
 30
0.0
 10
137.554926
 20
38.810142
 30
0.0
 10
136.781733
 20
38.810143
 30
0.0
  0
LWPOLYLINE
  5
10b
100
AcDbEntity
  8
Layer_1
 62
1
100
AcDbPolyline
 90
2
 70
0
 10
136.781733
 20
38.810143
 30
0.0
 10
98.781732
 20
38.810143
 30
0.0
  0
SPLINE
  5
10c
100
AcDbEntity
  8
Layer_1
 62
1
100
AcDbSpline
 70
8
 71
3
 72
8
 73
4
 74
0
 40
0
 40
0
 40
0
 40
0
 40
1
 40
1
 40
1
 40
1
 10
136.781733
 20
23.010153
 30
0.0
 10
137.554926
 20
23.010154
 30
0.0
 10
138.181725
 20
23.636949
 30
0.0
 10
138.181730
 20
24.410142
 30
0.0
  0
LWPOLYLINE
  5
10d
100
AcDbEntity
  8
Layer_1
 62
1
100
AcDbPolyline
 90
2
 70
0
 10
138.181730
 20
24.410142
 30
0.0
 10
138.181730
 20
37.410153
 30
0.0
  0
SPLINE
  5
10e
100
AcDbEntity
  8
Layer_1
 62
1
100
AcDbSpline
 70
8
 71
3
 72
8
 73
4
 74
0
 40
0
 40
0
 40
0
 40
0
 40
1
 40
1
 40
1
 40
1
 10
97.381732
 20
24.410142
 30
0.0
 10
97.381738
 20
23.636948
 30
0.0
 10
98.008538
 20
23.010153
 30
0.0
 10
98.781732
 20
23.010153
 30
0.0
  0
SPLINE
  5
10f
100
AcDbEntity
  8
Layer_1
 62
5
100
AcDbSpline
 70
8
 71
3
 72
8
 73
4
 74
0
 40
0
 40
0
 40
0
 40
0
 40
1
 40
1
 40
1
 40
1
 10
21.936973
 20
45.910157
 30
0.0
 10
21.936973
 20
46.477316
 30
0.0
 10
21.634397
 20
47.001393
 30
0.0
 10
21.143223
 20
47.284973
 30
0.0
  0
SPLINE
  5
110
100
AcDbEntity
  8
Layer_1
 62
5
100
AcDbSpline
 70
8
 71
3
 72
8
 73
4
 74
0
 40
0
 40
0
 40
0
 40
0
 40
1
 40
1
 40
1
 40
1
 10
21.143223
 20
47.284973
 30
0.0
 10
20.652049
 20
47.568552
 30
0.0
 10
20.046897
 20
47.568552
 30
0.0
 10
19.555723
 20
47.284973
 30
0.0
  0
SPLINE
  5
111
100
AcDbEntity
  8
Layer_1
 62
5
100
AcDbSpline
 70
8
 71
3
 72
8
 73
4
 74
0
 40
0
 40
0
 40
0
 40
0
 40
1
 40
1
 40
1
 40
1
 10
19.555723
 20
47.284973
 30
0.0
 10
19.064549
 20
47.001393
 30
0.0
 10
18.761973
 20
46.477316
 30
0.0
 10
18.761973
 20
45.910157
 30
0.0
  0
SPLINE
  5
112
100
AcDbEntity
  8
Layer_1
 62
5
100
AcDbSpline
 70
8
 71
3
 72
8
 73
4
 74
0
 40
0
 40
0
 40
0
 40
0
 40
1
 40
1
 40
1
 40
1
 10
18.761973
 20
45.910157
 30
0.0
 10
18.761973
 20
45.342998
 30
0.0
 10
19.064549
 20
44.818922
 30
0.0
 10
19.555723
 20
44.535342
 30
0.0
  0
SPLINE
  5
113
100
AcDbEntity
  8
Layer_1
 62
5
100
AcDbSpline
 70
8
 71
3
 72
8
 73
4
 74
0
 40
0
 40
0
 40
0
 40
0
 40
1
 40
1
 40
1
 40
1
 10
19.555723
 20
44.535342
 30
0.0
 10
20.046897
 20
44.251763
 30
0.0
 10
20.652049
 20
44.251763
 30
0.0
 10
21.143223
 20
44.535342
 30
0.0
  0
SPLINE
  5
114
100
AcDbEntity
  8
Layer_1
 62
5
100
AcDbSpline
 70
8
 71
3
 72
8
 73
4
 74
0
 40
0
 40
0
 40
0
 40
0
 40
1
 40
1
 40
1
 40
1
 10
21.143223
 20
44.535342
 30
0.0
 10
21.634397
 20
44.818922
 30
0.0
 10
21.936973
 20
45.342998
 30
0.0
 10
21.936973
 20
45.910157
 30
0.0
  0
LWPOLYLINE
  5
115
100
AcDbEntity
  8
Layer_1
 62
1
100
AcDbPolyline
 90
2
 70
0
 10
98.781732
 20
23.010153
 30
0.0
 10
136.781733
 20
23.010153
 30
0.0
  0
SPLINE
  5
116
100
AcDbEntity
  8
Layer_1
 62
5
100
AcDbSpline
 70
8
 71
3
 72
8
 73
4
 74
0
 40
0
 40
0
 40
0
 40
0
 40
1
 40
1
 40
1
 40
1
 10
105.836974
 20
45.910157
 30
0.0
 10
105.836974
 20
46.477316
 30
0.0
 10
105.534398
 20
47.001393
 30
0.0
 10
105.043224
 20
47.284973
 30
0.0
  0
SPLINE
  5
117
100
AcDbEntity
  8
Layer_1
 62
5
100
AcDbSpline
 70
8
 71
3
 72
8
 73
4
 74
0
 40
0
 40
0
 40
0
 40
0
 40
1
 40
1
 40
1
 40
1
 10
105.043224
 20
47.284973
 30
0.0
 10
104.552050
 20
47.568552
 30
0.0
 10
103.946898
 20
47.568552
 30
0.0
 10
103.455724
 20
47.284973
 30
0.0
  0
SPLINE
  5
118
100
AcDbEntity
  8
Layer_1
 62
5
100
AcDbSpline
 70
8
 71
3
 72
8
 73
4
 74
0
 40
0
 40
0
 40
0
 40
0
 40
1
 40
1
 40
1
 40
1
 10
103.455724
 20
47.284973
 30
0.0
 10
102.964550
 20
47.001393
 30
0.0
 10
102.661974
 20
46.477316
 30
0.0
 10
102.661974
 20
45.910157
 30
0.0
  0
SPLINE
  5
119
100
AcDbEntity
  8
Layer_1
 62
5
100
AcDbSpline
 70
8
 71
3
 72
8
 73
4
 74
0
 40
0
 40
0
 40
0
 40
0
 40
1
 40
1
 40
1
 40
1
 10
102.661974
 20
45.910157
 30
0.0
 10
102.661974
 20
45.342998
 30
0.0
 10
102.964550
 20
44.818922
 30
0.0
 10
103.455724
 20
44.535342
 30
0.0
  0
SPLINE
  5
11a
100
AcDbEntity
  8
Layer_1
 62
5
100
AcDbSpline
 70
8
 71
3
 72
8
 73
4
 74
0
 40
0
 40
0
 40
0
 40
0
 40
1
 40
1
 40
1
 40
1
 10
103.455724
 20
44.535342
 30
0.0
 10
103.946898
 20
44.251763
 30
0.0
 10
104.552050
 20
44.251763
 30
0.0
 10
105.043224
 20
44.535342
 30
0.0
  0
SPLINE
  5
11b
100
AcDbEntity
  8
Layer_1
 62
5
100
AcDbSpline
 70
8
 71
3
 72
8
 73
4
 74
0
 40
0
 40
0
 40
0
 40
0
 40
1
 40
1
 40
1
 40
1
 10
105.043224
 20
44.535342
 30
0.0
 10
105.534398
 20
44.818922
 30
0.0
 10
105.836974
 20
45.342998
 30
0.0
 10
105.836974
 20
45.910157
 30
0.0
  0
LWPOLYLINE
  5
11c
100
AcDbEntity
  8
Layer_1
 62
5
100
AcDbPolyline
 90
1
 70
1
 10
21.936973
 20
45.910157
 30
0.0
  0
SPLINE
  5
11d
100
AcDbEntity
  8
Layer_1
 62
5
100
AcDbSpline
 70
8
 71
3
 72
8
 73
4
 74
0
 40
0
 40
0
 40
0
 40
0
 40
1
 40
1
 40
1
 40
1
 10
114.726974
 20
109.810148
 30
0.0
 10
114.726974
 20
110.377307
 30
0.0
 10
114.424398
 20
110.901384
 30
0.0
 10
113.933224
 20
111.184964
 30
0.0
  0
SPLINE
  5
11e
100
AcDbEntity
  8
Layer_1
 62
5
100
AcDbSpline
 70
8
 71
3
 72
8
 73
4
 74
0
 40
0
 40
0
 40
0
 40
0
 40
1
 40
1
 40
1
 40
1
 10
113.933224
 20
111.184964
 30
0.0
 10
113.442050
 20
111.468543
 30
0.0
 10
112.836898
 20
111.468543
 30
0.0
 10
112.345724
 20
111.184964
 30
0.0
  0
SPLINE
  5
11f
100
AcDbEntity
  8
Layer_1
 62
5
100
AcDbSpline
 70
8
 71
3
 72
8
 73
4
 74
0
 40
0
 40
0
 40
0
 40
0
 40
1
 40
1
 40
1
 40
1
 10
112.345724
 20
111.184964
 30
0.0
 10
111.854550
 20
110.901384
 30
0.0
 10
111.551974
 20
110.377307
 30
0.0
 10
111.551974
 20
109.810148
 30
0.0
  0
SPLINE
  5
120
100
AcDbEntity
  8
Layer_1
 62
5
100
AcDbSpline
 70
8
 71
3
 72
8
 73
4
 74
0
 40
0
 40
0
 40
0
 40
0
 40
1
 40
1
 40
1
 40
1
 10
111.551974
 20
109.810148
 30
0.0
 10
111.551974
 20
109.242989
 30
0.0
 10
111.854550
 20
108.718913
 30
0.0
 10
112.345724
 20
108.435333
 30
0.0
  0
SPLINE
  5
121
100
AcDbEntity
  8
Layer_1
 62
5
100
AcDbSpline
 70
8
 71
3
 72
8
 73
4
 74
0
 40
0
 40
0
 40
0
 40
0
 40
1
 40
1
 40
1
 40
1
 10
112.345724
 20
108.435333
 30
0.0
 10
112.836898
 20
108.151753
 30
0.0
 10
113.442050
 20
108.151753
 30
0.0
 10
113.933224
 20
108.435333
 30
0.0
  0
SPLINE
  5
122
100
AcDbEntity
  8
Layer_1
 62
5
100
AcDbSpline
 70
8
 71
3
 72
8
 73
4
 74
0
 40
0
 40
0
 40
0
 40
0
 40
1
 40
1
 40
1
 40
1
 10
113.933224
 20
108.435333
 30
0.0
 10
114.424398
 20
108.718913
 30
0.0
 10
114.726974
 20
109.242989
 30
0.0
 10
114.726974
 20
109.810148
 30
0.0
  0
LWPOLYLINE
  5
123
100
AcDbEntity
  8
Layer_1
 62
5
100
AcDbPolyline
 90
1
 70
1
 10
105.836974
 20
45.910157
 30
0.0
  0
SPLINE
  5
124
100
AcDbEntity
  8
Layer_1
 62
5
100
AcDbSpline
 70
8
 71
3
 72
8
 73
4
 74
0
 40
0
 40
0
 40
0
 40
0
 40
1
 40
1
 40
1
 40
1
 10
125.036974
 20
109.810148
 30
0.0
 10
125.036974
 20
110.377307
 30
0.0
 10
124.734398
 20
110.901384
 30
0.0
 10
124.243224
 20
111.184964
 30
0.0
  0
SPLINE
  5
125
100
AcDbEntity
  8
Layer_1
 62
5
100
AcDbSpline
 70
8
 71
3
 72
8
 73
4
 74
0
 40
0
 40
0
 40
0
 40
0
 40
1
 40
1
 40
1
 40
1
 10
124.243224
 20
111.184964
 30
0.0
 10
123.752050
 20
111.468543
 30
0.0
 10
123.146898
 20
111.468543
 30
0.0
 10
122.655724
 20
111.184964
 30
0.0
  0
SPLINE
  5
126
100
AcDbEntity
  8
Layer_1
 62
5
100
AcDbSpline
 70
8
 71
3
 72
8
 73
4
 74
0
 40
0
 40
0
 40
0
 40
0
 40
1
 40
1
 40
1
 40
1
 10
122.655724
 20
111.184964
 30
0.0
 10
122.164550
 20
110.901384
 30
0.0
 10
121.861974
 20
110.377307
 30
0.0
 10
121.861974
 20
109.810148
 30
0.0
  0
SPLINE
  5
127
100
AcDbEntity
  8
Layer_1
 62
5
100
AcDbSpline
 70
8
 71
3
 72
8
 73
4
 74
0
 40
0
 40
0
 40
0
 40
0
 40
1
 40
1
 40
1
 40
1
 10
121.861974
 20
109.810148
 30
0.0
 10
121.861974
 20
109.242989
 30
0.0
 10
122.164550
 20
108.718913
 30
0.0
 10
122.655724
 20
108.435333
 30
0.0
  0
SPLINE
  5
128
100
AcDbEntity
  8
Layer_1
 62
5
100
AcDbSpline
 70
8
 71
3
 72
8
 73
4
 74
0
 40
0
 40
0
 40
0
 40
0
 40
1
 40
1
 40
1
 40
1
 10
122.655724
 20
108.435333
 30
0.0
 10
123.146898
 20
108.151753
 30
0.0
 10
123.752050
 20
108.151753
 30
0.0
 10
124.243224
 20
108.435333
 30
0.0
  0
SPLINE
  5
129
100
AcDbEntity
  8
Layer_1
 62
5
100
AcDbSpline
 70
8
 71
3
 72
8
 73
4
 74
0
 40
0
 40
0
 40
0
 40
0
 40
1
 40
1
 40
1
 40
1
 10
124.243224
 20
108.435333
 30
0.0
 10
124.734398
 20
108.718913
 30
0.0
 10
125.036974
 20
109.242989
 30
0.0
 10
125.036974
 20
109.810148
 30
0.0
  0
LWPOLYLINE
  5
12a
100
AcDbEntity
  8
Layer_1
 62
5
100
AcDbPolyline
 90
1
 70
1
 10
114.726974
 20
109.810148
 30
0.0
  0
SPLINE
  5
12b
100
AcDbEntity
  8
Layer_1
 62
5
100
AcDbSpline
 70
8
 71
3
 72
8
 73
4
 74
0
 40
0
 40
0
 40
0
 40
0
 40
1
 40
1
 40
1
 40
1
 10
125.036974
 20
45.910157
 30
0.0
 10
125.036974
 20
46.477316
 30
0.0
 10
124.734398
 20
47.001393
 30
0.0
 10
124.243224
 20
47.284973
 30
0.0
  0
SPLINE
  5
12c
100
AcDbEntity
  8
Layer_1
 62
5
100
AcDbSpline
 70
8
 71
3
 72
8
 73
4
 74
0
 40
0
 40
0
 40
0
 40
0
 40
1
 40
1
 40
1
 40
1
 10
124.243224
 20
47.284973
 30
0.0
 10
123.752050
 20
47.568552
 30
0.0
 10
123.146898
 20
47.568552
 30
0.0
 10
122.655724
 20
47.284973
 30
0.0
  0
SPLINE
  5
12d
100
AcDbEntity
  8
Layer_1
 62
5
100
AcDbSpline
 70
8
 71
3
 72
8
 73
4
 74
0
 40
0
 40
0
 40
0
 40
0
 40
1
 40
1
 40
1
 40
1
 10
122.655724
 20
47.284973
 30
0.0
 10
122.164550
 20
47.001393
 30
0.0
 10
121.861974
 20
46.477316
 30
0.0
 10
121.861974
 20
45.910157
 30
0.0
  0
SPLINE
  5
12e
100
AcDbEntity
  8
Layer_1
 62
5
100
AcDbSpline
 70
8
 71
3
 72
8
 73
4
 74
0
 40
0
 40
0
 40
0
 40
0
 40
1
 40
1
 40
1
 40
1
 10
121.861974
 20
45.910157
 30
0.0
 10
121.861974
 20
45.342998
 30
0.0
 10
122.164550
 20
44.818922
 30
0.0
 10
122.655724
 20
44.535342
 30
0.0
  0
SPLINE
  5
12f
100
AcDbEntity
  8
Layer_1
 62
5
100
AcDbSpline
 70
8
 71
3
 72
8
 73
4
 74
0
 40
0
 40
0
 40
0
 40
0
 40
1
 40
1
 40
1
 40
1
 10
122.655724
 20
44.535342
 30
0.0
 10
123.146898
 20
44.251763
 30
0.0
 10
123.752050
 20
44.251763
 30
0.0
 10
124.243224
 20
44.535342
 30
0.0
  0
SPLINE
  5
130
100
AcDbEntity
  8
Layer_1
 62
5
100
AcDbSpline
 70
8
 71
3
 72
8
 73
4
 74
0
 40
0
 40
0
 40
0
 40
0
 40
1
 40
1
 40
1
 40
1
 10
124.243224
 20
44.535342
 30
0.0
 10
124.734398
 20
44.818922
 30
0.0
 10
125.036974
 20
45.342998
 30
0.0
 10
125.036974
 20
45.910157
 30
0.0
  0
LWPOLYLINE
  5
131
100
AcDbEntity
  8
Layer_1
 62
5
100
AcDbPolyline
 90
1
 70
1
 10
125.036974
 20
109.810148
 30
0.0
  0
LWPOLYLINE
  5
132
100
AcDbEntity
  8
Layer_1
 62
5
100
AcDbPolyline
 90
1
 70
1
 10
125.036974
 20
45.910157
 30
0.0
  0
LWPOLYLINE
  5
133
100
AcDbEntity
  8
Layer_1
 62
5
100
AcDbPolyline
 90
2
 70
0
 10
24.349476
 20
109.810148
 30
0.0
 10
24.349476
 20
45.910157
 30
0.0
  0
LWPOLYLINE
  5
134
100
AcDbEntity
  8
Layer_1
 62
5
100
AcDbPolyline
 90
2
 70
0
 10
30.349474
 20
109.810148
 30
0.0
 10
24.349476
 20
109.810148
 30
0.0
  0
LWPOLYLINE
  5
135
100
AcDbEntity
  8
Layer_1
 62
5
100
AcDbPolyline
 90
2
 70
0
 10
30.349474
 20
111.810147
 30
0.0
 10
30.349474
 20
109.810148
 30
0.0
  0
LWPOLYLINE
  5
136
100
AcDbEntity
  8
Layer_1
 62
5
100
AcDbPolyline
 90
2
 70
0
 10
55.349474
 20
111.810147
 30
0.0
 10
30.349474
 20
111.810147
 30
0.0
  0
LWPOLYLINE
  5
137
100
AcDbEntity
  8
Layer_1
 62
5
100
AcDbPolyline
 90
2
 70
0
 10
55.349474
 20
109.810148
 30
0.0
 10
55.349474
 20
111.810147
 30
0.0
  0
LWPOLYLINE
  5
138
100
AcDbEntity
  8
Layer_1
 62
5
100
AcDbPolyline
 90
2
 70
0
 10
93.139473
 20
109.810148
 30
0.0
 10
55.349474
 20
109.810148
 30
0.0
  0
LWPOLYLINE
  5
139
100
AcDbEntity
  8
Layer_1
 62
5
100
AcDbPolyline
 90
2
 70
0
 10
93.139473
 20
106.810149
 30
0.0
 10
93.139473
 20
109.810148
 30
0.0
  0
LWPOLYLINE
  5
13a
100
AcDbEntity
  8
Layer_1
 62
5
100
AcDbPolyline
 90
2
 70
0
 10
126.449473
 20
106.810149
 30
0.0
 10
93.139473
 20
106.810149
 30
0.0
  0
LWPOLYLINE
  5
13b
100
AcDbEntity
  8
Layer_1
 62
5
100
AcDbPolyline
 90
2
 70
0
 10
126.449473
 20
48.910135
 30
0.0
 10
126.449473
 20
106.810149
 30
0.0
  0
LWPOLYLINE
  5
13c
100
AcDbEntity
  8
Layer_1
 62
5
100
AcDbPolyline
 90
2
 70
0
 10
93.139473
 20
48.910135
 30
0.0
 10
126.449473
 20
48.910135
 30
0.0
  0
LWPOLYLINE
  5
13d
100
AcDbEntity
  8
Layer_1
 62
5
100
AcDbPolyline
 90
2
 70
0
 10
93.139473
 20
45.910157
 30
0.0
 10
93.139473
 20
48.910135
 30
0.0
  0
SPLINE
  5
13e
100
AcDbEntity
  8
Layer_1
 62
5
100
AcDbSpline
 70
8
 71
3
 72
8
 73
4
 74
0
 40
0
 40
0
 40
0
 40
0
 40
1
 40
1
 40
1
 40
1
 10
21.936973
 20
109.810148
 30
0.0
 10
21.936973
 20
110.377307
 30
0.0
 10
21.634397
 20
110.901384
 30
0.0
 10
21.143223
 20
111.184964
 30
0.0
  0
SPLINE
  5
13f
100
AcDbEntity
  8
Layer_1
 62
5
100
AcDbSpline
 70
8
 71
3
 72
8
 73
4
 74
0
 40
0
 40
0
 40
0
 40
0
 40
1
 40
1
 40
1
 40
1
 10
21.143223
 20
111.184964
 30
0.0
 10
20.652049
 20
111.468543
 30
0.0
 10
20.046897
 20
111.468543
 30
0.0
 10
19.555723
 20
111.184964
 30
0.0
  0
SPLINE
  5
140
100
AcDbEntity
  8
Layer_1
 62
5
100
AcDbSpline
 70
8
 71
3
 72
8
 73
4
 74
0
 40
0
 40
0
 40
0
 40
0
 40
1
 40
1
 40
1
 40
1
 10
19.555723
 20
111.184964
 30
0.0
 10
19.064549
 20
110.901384
 30
0.0
 10
18.761973
 20
110.377307
 30
0.0
 10
18.761973
 20
109.810148
 30
0.0
  0
SPLINE
  5
141
100
AcDbEntity
  8
Layer_1
 62
5
100
AcDbSpline
 70
8
 71
3
 72
8
 73
4
 74
0
 40
0
 40
0
 40
0
 40
0
 40
1
 40
1
 40
1
 40
1
 10
18.761973
 20
109.810148
 30
0.0
 10
18.761973
 20
109.242989
 30
0.0
 10
19.064549
 20
108.718913
 30
0.0
 10
19.555723
 20
108.435333
 30
0.0
  0
SPLINE
  5
142
100
AcDbEntity
  8
Layer_1
 62
5
100
AcDbSpline
 70
8
 71
3
 72
8
 73
4
 74
0
 40
0
 40
0
 40
0
 40
0
 40
1
 40
1
 40
1
 40
1
 10
19.555723
 20
108.435333
 30
0.0
 10
20.046897
 20
108.151753
 30
0.0
 10
20.652049
 20
108.151753
 30
0.0
 10
21.143223
 20
108.435333
 30
0.0
  0
SPLINE
  5
143
100
AcDbEntity
  8
Layer_1
 62
5
100
AcDbSpline
 70
8
 71
3
 72
8
 73
4
 74
0
 40
0
 40
0
 40
0
 40
0
 40
1
 40
1
 40
1
 40
1
 10
21.143223
 20
108.435333
 30
0.0
 10
21.634397
 20
108.718913
 30
0.0
 10
21.936973
 20
109.242989
 30
0.0
 10
21.936973
 20
109.810148
 30
0.0
  0
LWPOLYLINE
  5
144
100
AcDbEntity
  8
Layer_1
 62
5
100
AcDbPolyline
 90
2
 70
0
 10
24.349476
 20
45.910157
 30
0.0
 10
93.139473
 20
45.910157
 30
0.0
  0
LWPOLYLINE
  5
145
100
AcDbEntity
  8
Layer_1
 62
5
100
AcDbPolyline
 90
1
 70
1
 10
21.936973
 20
109.810148
 30
0.0
  0
SPLINE
  5
146
100
AcDbEntity
  8
Layer_1
 62
5
100
AcDbSpline
 70
8
 71
3
 72
8
 73
4
 74
0
 40
0
 40
0
 40
0
 40
0
 40
1
 40
1
 40
1
 40
1
 10
64.709483
 20
112.314149
 30
0.0
 10
64.381945
 20
113.355654
 30
0.0
 10
63.416429
 20
114.064148
 30
0.0
 10
62.324635
 20
114.064148
 30
0.0
  0
LWPOLYLINE
  5
147
100
AcDbEntity
  8
Layer_1
 62
5
100
AcDbPolyline
 90
2
 70
0
 10
141.179872
 20
112.314149
 30
0.0
 10
64.709483
 20
112.314149
 30
0.0
  0
SPLINE
  5
148
100
AcDbEntity
  8
Layer_1
 62
5
100
AcDbSpline
 70
8
 71
3
 72
8
 73
4
 74
0
 40
0
 40
0
 40
0
 40
0
 40
1
 40
1
 40
1
 40
1
 10
2.619075
 20
114.064148
 30
0.0
 10
1.956033
 20
114.064148
 30
0.0
 10
1.320148
 20
113.800756
 30
0.0
 10
0.851307
 20
113.331915
 30
0.0
  0
SPLINE
  5
149
100
AcDbEntity
  8
Layer_1
 62
5
100
AcDbSpline
 70
8
 71
3
 72
8
 73
4
 74
0
 40
0
 40
0
 40
0
 40
0
 40
1
 40
1
 40
1
 40
1
 10
0.851307
 20
113.331915
 30
0.0
 10
0.382466
 20
112.863074
 30
0.0
 10
0.119074
 20
112.227189
 30
0.0
 10
0.119074
 20
111.564148
 30
0.0
  0
LWPOLYLINE
  5
14a
100
AcDbEntity
  8
Layer_1
 62
5
100
AcDbPolyline
 90
2
 70
0
 10
62.324635
 20
114.064148
 30
0.0
 10
2.619075
 20
114.064148
 30
0.0
  0
SPLINE
  5
14b
100
AcDbEntity
  8
Layer_1
 62
5
100
AcDbSpline
 70
8
 71
3
 72
8
 73
4
 74
0
 40
0
 40
0
 40
0
 40
0
 40
1
 40
1
 40
1
 40
1
 10
0.119074
 20
101.993537
 30
0.0
 10
0.119074
 20
101.330495
 30
0.0
 10
0.382466
 20
100.694610
 30
0.0
 10
0.851307
 20
100.225769
 30
0.0
  0
SPLINE
  5
14c
100
AcDbEntity
  8
Layer_1
 62
5
100
AcDbSpline
 70
8
 71
3
 72
8
 73
4
 74
0
 40
0
 40
0
 40
0
 40
0
 40
1
 40
1
 40
1
 40
1
 10
0.851307
 20
100.225769
 30
0.0
 10
1.320148
 20
99.756928
 30
0.0
 10
1.956033
 20
99.493536
 30
0.0
 10
2.619075
 20
99.493536
 30
0.0
  0
LWPOLYLINE
  5
14d
100
AcDbEntity
  8
Layer_1
 62
5
100
AcDbPolyline
 90
2
 70
0
 10
0.119074
 20
111.564148
 30
0.0
 10
0.119074
 20
101.993537
 30
0.0
  0
SPLINE
  5
14e
100
AcDbEntity
  8
Layer_1
 62
5
100
AcDbSpline
 70
8
 71
3
 72
8
 73
4
 74
0
 40
0
 40
0
 40
0
 40
0
 40
1
 40
1
 40
1
 40
1
 10
10.124960
 20
96.993536
 30
0.0
 10
10.124960
 20
97.656577
 30
0.0
 10
9.861568
 20
98.292462
 30
0.0
 10
9.392727
 20
98.761303
 30
0.0
  0
SPLINE
  5
14f
100
AcDbEntity
  8
Layer_1
 62
5
100
AcDbSpline
 70
8
 71
3
 72
8
 73
4
 74
0
 40
0
 40
0
 40
0
 40
0
 40
1
 40
1
 40
1
 40
1
 10
9.392727
 20
98.761303
 30
0.0
 10
8.923886
 20
99.230144
 30
0.0
 10
8.288001
 20
99.493536
 30
0.0
 10
7.624960
 20
99.493536
 30
0.0
  0
LWPOLYLINE
  5
150
100
AcDbEntity
  8
Layer_1
 62
5
100
AcDbPolyline
 90
2
 70
0
 10
2.619075
 20
99.493536
 30
0.0
 10
7.624960
 20
99.493536
 30
0.0
  0
SPLINE
  5
151
100
AcDbEntity
  8
Layer_1
 62
5
100
AcDbSpline
 70
8
 71
3
 72
8
 73
4
 74
0
 40
0
 40
0
 40
0
 40
0
 40
1
 40
1
 40
1
 40
1
 10
7.624960
 20
42.729548
 30
0.0
 10
9.005670
 20
42.729548
 30
0.0
 10
10.124957
 20
43.848833
 30
0.0
 10
10.124960
 20
45.229543
 30
0.0
  0
LWPOLYLINE
  5
152
100
AcDbEntity
  8
Layer_1
 62
5
100
AcDbPolyline
 90
2
 70
0
 10
10.124960
 20
96.993536
 30
0.0
 10
10.124960
 20
45.229543
 30
0.0
  0
SPLINE
  5
153
100
AcDbEntity
  8
Layer_1
 62
5
100
AcDbSpline
 70
8
 71
3
 72
8
 73
4
 74
0
 40
0
 40
0
 40
0
 40
0
 40
1
 40
1
 40
1
 40
1
 10
2.619075
 20
42.729548
 30
0.0
 10
1.238365
 20
42.729548
 30
0.0
 10
0.119077
 20
41.610263
 30
0.0
 10
0.119074
 20
40.229553
 30
0.0
  0
LWPOLYLINE
  5
154
100
AcDbEntity
  8
Layer_1
 62
5
100
AcDbPolyline
 90
2
 70
0
 10
7.624960
 20
42.729548
 30
0.0
 10
2.619075
 20
42.729548
 30
0.0
  0
SPLINE
  5
155
100
AcDbEntity
  8
Layer_1
 62
5
100
AcDbSpline
 70
8
 71
3
 72
8
 73
4
 74
0
 40
0
 40
0
 40
0
 40
0
 40
1
 40
1
 40
1
 40
1
 10
0.119074
 20
11.788962
 30
0.0
 10
0.119069
 20
11.125917
 30
0.0
 10
0.382458
 20
10.490027
 30
0.0
 10
0.851300
 20
10.021181
 30
0.0
  0
SPLINE
  5
156
100
AcDbEntity
  8
Layer_1
 62
5
100
AcDbSpline
 70
8
 71
3
 72
8
 73
4
 74
0
 40
0
 40
0
 40
0
 40
0
 40
1
 40
1
 40
1
 40
1
 10
0.851300
 20
10.021181
 30
0.0
 10
1.320142
 20
9.552335
 30
0.0
 10
1.956030
 20
9.288940
 30
0.0
 10
2.619075
 20
9.288941
 30
0.0
  0
LWPOLYLINE
  5
157
100
AcDbEntity
  8
Layer_1
 62
5
100
AcDbPolyline
 90
2
 70
0
 10
0.119074
 20
40.229553
 30
0.0
 10
0.119074
 20
11.788962
 30
0.0
  0
SPLINE
  5
158
100
AcDbEntity
  8
Layer_1
 62
5
100
AcDbSpline
 70
8
 71
3
 72
8
 73
4
 74
0
 40
0
 40
0
 40
0
 40
0
 40
1
 40
1
 40
1
 40
1
 10
6.435673
 20
9.288941
 30
0.0
 10
7.098718
 20
9.288940
 30
0.0
 10
7.734606
 20
9.552335
 30
0.0
 10
8.203448
 20
10.021181
 30
0.0
  0
SPLINE
  5
159
100
AcDbEntity
  8
Layer_1
 62
5
100
AcDbSpline
 70
8
 71
3
 72
8
 73
4
 74
0
 40
0
 40
0
 40
0
 40
0
 40
1
 40
1
 40
1
 40
1
 10
8.203448
 20
10.021181
 30
0.0
 10
8.672290
 20
10.490027
 30
0.0
 10
8.935679
 20
11.125917
 30
0.0
 10
8.935674
 20
11.788962
 30
0.0
  0
LWPOLYLINE
  5
15a
100
AcDbEntity
  8
Layer_1
 62
5
100
AcDbPolyline
 90
2
 70
0
 10
2.619075
 20
9.288941
 30
0.0
 10
6.435673
 20
9.288941
 30
0.0
  0
SPLINE
  5
15b
100
AcDbEntity
  8
Layer_1
 62
5
100
AcDbSpline
 70
8
 71
3
 72
8
 73
4
 74
0
 40
0
 40
0
 40
0
 40
0
 40
1
 40
1
 40
1
 40
1
 10
11.435674
 20
17.729546
 30
0.0
 10
10.054964
 20
17.729546
 30
0.0
 10
8.935676
 20
16.610261
 30
0.0
 10
8.935674
 20
15.229551
 30
0.0
  0
LWPOLYLINE
  5
15c
100
AcDbEntity
  8
Layer_1
 62
5
100
AcDbPolyline
 90
2
 70
0
 10
8.935674
 20
11.788962
 30
0.0
 10
8.935674
 20
15.229551
 30
0.0
  0
SPLINE
  5
15d
100
AcDbEntity
  8
Layer_1
 62
5
100
AcDbSpline
 70
8
 71
3
 72
8
 73
4
 74
0
 40
0
 40
0
 40
0
 40
0
 40
1
 40
1
 40
1
 40
1
 10
134.863273
 20
15.229551
 30
0.0
 10
134.863271
 20
16.610261
 30
0.0
 10
133.743983
 20
17.729546
 30
0.0
 10
132.363273
 20
17.729546
 30
0.0
  0
LWPOLYLINE
  5
15e
100
AcDbEntity
  8
Layer_1
 62
5
100
AcDbPolyline
 90
2
 70
0
 10
11.435674
 20
17.729546
 30
0.0
 10
132.363273
 20
17.729546
 30
0.0
  0
SPLINE
  5
15f
100
AcDbEntity
  8
Layer_1
 62
5
100
AcDbSpline
 70
8
 71
3
 72
8
 73
4
 74
0
 40
0
 40
0
 40
0
 40
0
 40
1
 40
1
 40
1
 40
1
 10
134.863273
 20
11.788962
 30
0.0
 10
134.863268
 20
11.125917
 30
0.0
 10
135.126657
 20
10.490027
 30
0.0
 10
135.595499
 20
10.021181
 30
0.0
  0
SPLINE
  5
160
100
AcDbEntity
  8
Layer_1
 62
5
100
AcDbSpline
 70
8
 71
3
 72
8
 73
4
 74
0
 40
0
 40
0
 40
0
 40
0
 40
1
 40
1
 40
1
 40
1
 10
135.595499
 20
10.021181
 30
0.0
 10
136.064341
 20
9.552335
 30
0.0
 10
136.700229
 20
9.288940
 30
0.0
 10
137.363274
 20
9.288941
 30
0.0
  0
LWPOLYLINE
  5
161
100
AcDbEntity
  8
Layer_1
 62
5
100
AcDbPolyline
 90
2
 70
0
 10
134.863273
 20
15.229551
 30
0.0
 10
134.863273
 20
11.788962
 30
0.0
  0
SPLINE
  5
162
100
AcDbEntity
  8
Layer_1
 62
5
100
AcDbSpline
 70
8
 71
3
 72
8
 73
4
 74
0
 40
0
 40
0
 40
0
 40
0
 40
1
 40
1
 40
1
 40
1
 10
141.179872
 20
9.288941
 30
0.0
 10
141.842917
 20
9.288940
 30
0.0
 10
142.478805
 20
9.552335
 30
0.0
 10
142.947647
 20
10.021181
 30
0.0
  0
SPLINE
  5
163
100
AcDbEntity
  8
Layer_1
 62
5
100
AcDbSpline
 70
8
 71
3
 72
8
 73
4
 74
0
 40
0
 40
0
 40
0
 40
0
 40
1
 40
1
 40
1
 40
1
 10
142.947647
 20
10.021181
 30
0.0
 10
143.416489
 20
10.490027
 30
0.0
 10
143.679878
 20
11.125917
 30
0.0
 10
143.679873
 20
11.788962
 30
0.0
  0
LWPOLYLINE
  5
164
100
AcDbEntity
  8
Layer_1
 62
5
100
AcDbPolyline
 90
2
 70
0
 10
137.363274
 20
9.288941
 30
0.0
 10
141.179872
 20
9.288941
 30
0.0
  0
SPLINE
  5
165
100
AcDbEntity
  8
Layer_1
 62
5
100
AcDbSpline
 70
8
 71
3
 72
8
 73
4
 74
0
 40
0
 40
0
 40
0
 40
0
 40
1
 40
1
 40
1
 40
1
 10
143.679873
 20
17.729546
 30
0.0
 10
143.679870
 20
19.110256
 30
0.0
 10
142.560582
 20
20.229541
 30
0.0
 10
141.179872
 20
20.229541
 30
0.0
  0
SPLINE
  5
166
100
AcDbEntity
  8
Layer_1
 62
5
100
AcDbSpline
 70
8
 71
3
 72
8
 73
4
 74
0
 40
0
 40
0
 40
0
 40
0
 40
1
 40
1
 40
1
 40
1
 10
138.679872
 20
22.729536
 30
0.0
 10
138.679875
 20
21.348826
 30
0.0
 10
139.799162
 20
20.229540
 30
0.0
 10
141.179872
 20
20.229541
 30
0.0
  0
LWPOLYLINE
  5
167
100
AcDbEntity
  8
Layer_1
 62
5
100
AcDbPolyline
 90
2
 70
0
 10
143.679873
 20
11.788962
 30
0.0
 10
143.679873
 20
17.729546
 30
0.0
  0
SPLINE
  5
168
100
AcDbEntity
  8
Layer_1
 62
5
100
AcDbSpline
 70
8
 71
3
 72
8
 73
4
 74
0
 40
0
 40
0
 40
0
 40
0
 40
1
 40
1
 40
1
 40
1
 10
141.179872
 20
95.229548
 30
0.0
 10
140.516831
 20
95.229548
 30
0.0
 10
139.880946
 20
94.966156
 30
0.0
 10
139.412105
 20
94.497315
 30
0.0
  0
SPLINE
  5
169
100
AcDbEntity
  8
Layer_1
 62
5
100
AcDbSpline
 70
8
 71
3
 72
8
 73
4
 74
0
 40
0
 40
0
 40
0
 40
0
 40
1
 40
1
 40
1
 40
1
 10
139.412105
 20
94.497315
 30
0.0
 10
138.943264
 20
94.028474
 30
0.0
 10
138.679872
 20
93.392589
 30
0.0
 10
138.679872
 20
92.729548
 30
0.0
  0
SPLINE
  5
16a
100
AcDbEntity
  8
Layer_1
 62
5
100
AcDbSpline
 70
8
 71
3
 72
8
 73
4
 74
0
 40
0
 40
0
 40
0
 40
0
 40
1
 40
1
 40
1
 40
1
 10
141.179872
 20
95.229548
 30
0.0
 10
141.842914
 20
95.229548
 30
0.0
 10
142.478799
 20
95.492940
 30
0.0
 10
142.947640
 20
95.961781
 30
0.0
  0
SPLINE
  5
16b
100
AcDbEntity
  8
Layer_1
 62
5
100
AcDbSpline
 70
8
 71
3
 72
8
 73
4
 74
0
 40
0
 40
0
 40
0
 40
0
 40
1
 40
1
 40
1
 40
1
 10
142.947640
 20
95.961781
 30
0.0
 10
143.416481
 20
96.430622
 30
0.0
 10
143.679873
 20
97.066507
 30
0.0
 10
143.679873
 20
97.729549
 30
0.0
  0
LWPOLYLINE
  5
16c
100
AcDbEntity
  8
Layer_1
 62
5
100
AcDbPolyline
 90
2
 70
0
 10
138.679872
 20
22.729536
 30
0.0
 10
138.679872
 20
92.729548
 30
0.0
  0
SPLINE
  5
16d
100
AcDbEntity
  8
Layer_1
 62
5
100
AcDbSpline
 70
8
 71
3
 72
8
 73
4
 74
0
 40
0
 40
0
 40
0
 40
0
 40
1
 40
1
 40
1
 40
1
 10
143.679873
 20
109.814149
 30
0.0
 10
143.679873
 20
110.477190
 30
0.0
 10
143.416481
 20
111.113075
 30
0.0
 10
142.947640
 20
111.581916
 30
0.0
  0
SPLINE
  5
16e
100
AcDbEntity
  8
Layer_1
 62
5
100
AcDbSpline
 70
8
 71
3
 72
8
 73
4
 74
0
 40
0
 40
0
 40
0
 40
0
 40
1
 40
1
 40
1
 40
1
 10
142.947640
 20
111.581916
 30
0.0
 10
142.478799
 20
112.050757
 30
0.0
 10
141.842914
 20
112.314149
 30
0.0
 10
141.179872
 20
112.314149
 30
0.0
  0
SPLINE
  5
16f
100
AcDbEntity
  8
Layer_1
 62
5
100
AcDbSpline
 70
8
 71
3
 72
8
 73
4
 74
0
 40
0
 40
0
 40
0
 40
0
 40
1
 40
1
 40
1
 40
1
 10
7.650174
 20
103.170149
 30
0.0
 10
7.650174
 20
103.782681
 30
0.0
 10
7.323392
 20
104.348684
 30
0.0
 10
6.792924
 20
104.654950
 30
0.0
  0
SPLINE
  5
170
100
AcDbEntity
  8
Layer_1
 62
5
100
AcDbSpline
 70
8
 71
3
 72
8
 73
4
 74
0
 40
0
 40
0
 40
0
 40
0
 40
1
 40
1
 40
1
 40
1
 10
6.792924
 20
104.654950
 30
0.0
 10
6.262456
 20
104.961216
 30
0.0
 10
5.608892
 20
104.961216
 30
0.0
 10
5.078424
 20
104.654950
 30
0.0
  0
SPLINE
  5
171
100
AcDbEntity
  8
Layer_1
 62
5
100
AcDbSpline
 70
8
 71
3
 72
8
 73
4
 74
0
 40
0
 40
0
 40
0
 40
0
 40
1
 40
1
 40
1
 40
1
 10
5.078424
 20
104.654950
 30
0.0
 10
4.547956
 20
104.348684
 30
0.0
 10
4.221174
 20
103.782681
 30
0.0
 10
4.221174
 20
103.170149
 30
0.0
  0
SPLINE
  5
172
100
AcDbEntity
  8
Layer_1
 62
5
100
AcDbSpline
 70
8
 71
3
 72
8
 73
4
 74
0
 40
0
 40
0
 40
0
 40
0
 40
1
 40
1
 40
1
 40
1
 10
4.221174
 20
103.170149
 30
0.0
 10
4.221174
 20
102.557617
 30
0.0
 10
4.547956
 20
101.991615
 30
0.0
 10
5.078424
 20
101.685349
 30
0.0
  0
SPLINE
  5
173
100
AcDbEntity
  8
Layer_1
 62
5
100
AcDbSpline
 70
8
 71
3
 72
8
 73
4
 74
0
 40
0
 40
0
 40
0
 40
0
 40
1
 40
1
 40
1
 40
1
 10
5.078424
 20
101.685349
 30
0.0
 10
5.608892
 20
101.379083
 30
0.0
 10
6.262456
 20
101.379083
 30
0.0
 10
6.792924
 20
101.685349
 30
0.0
  0
SPLINE
  5
174
100
AcDbEntity
  8
Layer_1
 62
5
100
AcDbSpline
 70
8
 71
3
 72
8
 73
4
 74
0
 40
0
 40
0
 40
0
 40
0
 40
1
 40
1
 40
1
 40
1
 10
6.792924
 20
101.685349
 30
0.0
 10
7.323392
 20
101.991615
 30
0.0
 10
7.650174
 20
102.557617
 30
0.0
 10
7.650174
 20
103.170149
 30
0.0
  0
LWPOLYLINE
  5
175
100
AcDbEntity
  8
Layer_1
 62
5
100
AcDbPolyline
 90
2
 70
0
 10
143.679873
 20
97.729549
 30
0.0
 10
143.679873
 20
109.814149
 30
0.0
  0
SPLINE
  5
176
100
AcDbEntity
  8
Layer_1
 62
5
100
AcDbSpline
 70
8
 71
3
 72
8
 73
4
 74
0
 40
0
 40
0
 40
0
 40
0
 40
1
 40
1
 40
1
 40
1
 10
139.577773
 20
103.170149
 30
0.0
 10
139.577773
 20
103.782681
 30
0.0
 10
139.250991
 20
104.348684
 30
0.0
 10
138.720523
 20
104.654950
 30
0.0
  0
SPLINE
  5
177
100
AcDbEntity
  8
Layer_1
 62
5
100
AcDbSpline
 70
8
 71
3
 72
8
 73
4
 74
0
 40
0
 40
0
 40
0
 40
0
 40
1
 40
1
 40
1
 40
1
 10
138.720523
 20
104.654950
 30
0.0
 10
138.190055
 20
104.961216
 30
0.0
 10
137.536491
 20
104.961216
 30
0.0
 10
137.006023
 20
104.654950
 30
0.0
  0
SPLINE
  5
178
100
AcDbEntity
  8
Layer_1
 62
5
100
AcDbSpline
 70
8
 71
3
 72
8
 73
4
 74
0
 40
0
 40
0
 40
0
 40
0
 40
1
 40
1
 40
1
 40
1
 10
137.006023
 20
104.654950
 30
0.0
 10
136.475555
 20
104.348684
 30
0.0
 10
136.148773
 20
103.782681
 30
0.0
 10
136.148773
 20
103.170149
 30
0.0
  0
SPLINE
  5
179
100
AcDbEntity
  8
Layer_1
 62
5
100
AcDbSpline
 70
8
 71
3
 72
8
 73
4
 74
0
 40
0
 40
0
 40
0
 40
0
 40
1
 40
1
 40
1
 40
1
 10
136.148773
 20
103.170149
 30
0.0
 10
136.148773
 20
102.557617
 30
0.0
 10
136.475555
 20
101.991615
 30
0.0
 10
137.006023
 20
101.685349
 30
0.0
  0
SPLINE
  5
17a
100
AcDbEntity
  8
Layer_1
 62
5
100
AcDbSpline
 70
8
 71
3
 72
8
 73
4
 74
0
 40
0
 40
0
 40
0
 40
0
 40
1
 40
1
 40
1
 40
1
 10
137.006023
 20
101.685349
 30
0.0
 10
137.536491
 20
101.379083
 30
0.0
 10
138.190055
 20
101.379083
 30
0.0
 10
138.720523
 20
101.685349
 30
0.0
  0
SPLINE
  5
17b
100
AcDbEntity
  8
Layer_1
 62
5
100
AcDbSpline
 70
8
 71
3
 72
8
 73
4
 74
0
 40
0
 40
0
 40
0
 40
0
 40
1
 40
1
 40
1
 40
1
 10
138.720523
 20
101.685349
 30
0.0
 10
139.250991
 20
101.991615
 30
0.0
 10
139.577773
 20
102.557617
 30
0.0
 10
139.577773
 20
103.170149
 30
0.0
  0
LWPOLYLINE
  5
17c
100
AcDbEntity
  8
Layer_1
 62
5
100
AcDbPolyline
 90
1
 70
1
 10
7.650174
 20
103.170149
 30
0.0
  0
SPLINE
  5
17d
100
AcDbEntity
  8
Layer_1
 62
5
100
AcDbSpline
 70
8
 71
3
 72
8
 73
4
 74
0
 40
0
 40
0
 40
0
 40
0
 40
1
 40
1
 40
1
 40
1
 10
7.650174
 20
12.288945
 30
0.0
 10
7.650174
 20
12.901477
 30
0.0
 10
7.323392
 20
13.467480
 30
0.0
 10
6.792924
 20
13.773746
 30
0.0
  0
SPLINE
  5
17e
100
AcDbEntity
  8
Layer_1
 62
5
100
AcDbSpline
 70
8
 71
3
 72
8
 73
4
 74
0
 40
0
 40
0
 40
0
 40
0
 40
1
 40
1
 40
1
 40
1
 10
6.792924
 20
13.773746
 30
0.0
 10
6.262456
 20
14.080012
 30
0.0
 10
5.608892
 20
14.080012
 30
0.0
 10
5.078424
 20
13.773746
 30
0.0
  0
SPLINE
  5
17f
100
AcDbEntity
  8
Layer_1
 62
5
100
AcDbSpline
 70
8
 71
3
 72
8
 73
4
 74
0
 40
0
 40
0
 40
0
 40
0
 40
1
 40
1
 40
1
 40
1
 10
5.078424
 20
13.773746
 30
0.0
 10
4.547956
 20
13.467480
 30
0.0
 10
4.221174
 20
12.901477
 30
0.0
 10
4.221174
 20
12.288945
 30
0.0
  0
SPLINE
  5
180
100
AcDbEntity
  8
Layer_1
 62
5
100
AcDbSpline
 70
8
 71
3
 72
8
 73
4
 74
0
 40
0
 40
0
 40
0
 40
0
 40
1
 40
1
 40
1
 40
1
 10
4.221174
 20
12.288945
 30
0.0
 10
4.221174
 20
11.676413
 30
0.0
 10
4.547956
 20
11.110410
 30
0.0
 10
5.078424
 20
10.804145
 30
0.0
  0
SPLINE
  5
181
100
AcDbEntity
  8
Layer_1
 62
5
100
AcDbSpline
 70
8
 71
3
 72
8
 73
4
 74
0
 40
0
 40
0
 40
0
 40
0
 40
1
 40
1
 40
1
 40
1
 10
5.078424
 20
10.804145
 30
0.0
 10
5.608892
 20
10.497879
 30
0.0
 10
6.262456
 20
10.497879
 30
0.0
 10
6.792924
 20
10.804145
 30
0.0
  0
SPLINE
  5
182
100
AcDbEntity
  8
Layer_1
 62
5
100
AcDbSpline
 70
8
 71
3
 72
8
 73
4
 74
0
 40
0
 40
0
 40
0
 40
0
 40
1
 40
1
 40
1
 40
1
 10
6.792924
 20
10.804145
 30
0.0
 10
7.323392
 20
11.110410
 30
0.0
 10
7.650174
 20
11.676413
 30
0.0
 10
7.650174
 20
12.288945
 30
0.0
  0
LWPOLYLINE
  5
183
100
AcDbEntity
  8
Layer_1
 62
5
100
AcDbPolyline
 90
1
 70
1
 10
139.577773
 20
103.170149
 30
0.0
  0
SPLINE
  5
184
100
AcDbEntity
  8
Layer_1
 62
5
100
AcDbSpline
 70
8
 71
3
 72
8
 73
4
 74
0
 40
0
 40
0
 40
0
 40
0
 40
1
 40
1
 40
1
 40
1
 10
139.577773
 20
12.288945
 30
0.0
 10
139.577773
 20
12.901477
 30
0.0
 10
139.250991
 20
13.467480
 30
0.0
 10
138.720523
 20
13.773746
 30
0.0
  0
SPLINE
  5
185
100
AcDbEntity
  8
Layer_1
 62
5
100
AcDbSpline
 70
8
 71
3
 72
8
 73
4
 74
0
 40
0
 40
0
 40
0
 40
0
 40
1
 40
1
 40
1
 40
1
 10
138.720523
 20
13.773746
 30
0.0
 10
138.190055
 20
14.080012
 30
0.0
 10
137.536491
 20
14.080012
 30
0.0
 10
137.006023
 20
13.773746
 30
0.0
  0
SPLINE
  5
186
100
AcDbEntity
  8
Layer_1
 62
5
100
AcDbSpline
 70
8
 71
3
 72
8
 73
4
 74
0
 40
0
 40
0
 40
0
 40
0
 40
1
 40
1
 40
1
 40
1
 10
137.006023
 20
13.773746
 30
0.0
 10
136.475555
 20
13.467480
 30
0.0
 10
136.148773
 20
12.901477
 30
0.0
 10
136.148773
 20
12.288945
 30
0.0
  0
SPLINE
  5
187
100
AcDbEntity
  8
Layer_1
 62
5
100
AcDbSpline
 70
8
 71
3
 72
8
 73
4
 74
0
 40
0
 40
0
 40
0
 40
0
 40
1
 40
1
 40
1
 40
1
 10
136.148773
 20
12.288945
 30
0.0
 10
136.148773
 20
11.676413
 30
0.0
 10
136.475555
 20
11.110410
 30
0.0
 10
137.006023
 20
10.804145
 30
0.0
  0
SPLINE
  5
188
100
AcDbEntity
  8
Layer_1
 62
5
100
AcDbSpline
 70
8
 71
3
 72
8
 73
4
 74
0
 40
0
 40
0
 40
0
 40
0
 40
1
 40
1
 40
1
 40
1
 10
137.006023
 20
10.804145
 30
0.0
 10
137.536491
 20
10.497879
 30
0.0
 10
138.190055
 20
10.497879
 30
0.0
 10
138.720523
 20
10.804145
 30
0.0
  0
SPLINE
  5
189
100
AcDbEntity
  8
Layer_1
 62
5
100
AcDbSpline
 70
8
 71
3
 72
8
 73
4
 74
0
 40
0
 40
0
 40
0
 40
0
 40
1
 40
1
 40
1
 40
1
 10
138.720523
 20
10.804145
 30
0.0
 10
139.250991
 20
11.110410
 30
0.0
 10
139.577773
 20
11.676413
 30
0.0
 10
139.577773
 20
12.288945
 30
0.0
  0
LWPOLYLINE
  5
18a
100
AcDbEntity
  8
Layer_1
 62
5
100
AcDbPolyline
 90
1
 70
1
 10
7.650174
 20
12.288945
 30
0.0
  0
LWPOLYLINE
  5
18b
100
AcDbEntity
  8
Layer_1
 62
5
100
AcDbPolyline
 90
1
 70
1
 10
139.577773
 20
12.288945
 30
0.0
  0
ENDSEC
  0
SECTION
  2
OBJECTS
  0
DICTIONARY
  5
C
330
0
100
AcDbDictionary
  3
ACAD_GROUP
350
D
  3
ACAD_MLINESTYLE
350
17
  0
DICTIONARY
  5
D
330
C
100
AcDbDictionary
  0
DICTIONARY
  5
1A
330
C
100
AcDbDictionary
  0
DICTIONARY
  5
17
330
C
100
AcDbDictionary
  3
STANDARD
350
18
  0
DICTIONARY
  5
19
330
C
100
AcDbDictionary
  0
ENDSEC
  0
EOF
